# xmcd
#
# Track frame offsets:
#	150
#	17448
#	36034
#	54434
#	70081
#	87261
#	103544
#	120533
#	137264
#	153786
#	169371
#	181563
#	199472
#	215049
#	233768
#
# Disc length: 3361 seconds
#
# Revision: 1
# Processed by: cddbd v1.5.2PL0 Copyright (c) Steve Scherf et al.
# Submitted via: audiograbber 1.83.01
#
DISCID=bc0d1f0f
DTITLE=Rascal Flatts - TT259
DYEAR=1900
DGENRE=Country
TTITLE0=Rascal Flatts - Bless The Broken Road
TTITLE1=Pat Green - Don't Break My Heart Again
TTITLE2=Big and Rich - Holy Water
TTITLE3=Dierks Bentley - How Am I Doin'
TTITLE4=Lee Ann Womack - I May Hate Myself In The Morning
TTITLE5=Andy Griggs - If Heaven
TTITLE6=Billy Dean - Let Them Be Little
TTITLE7=Miranda Lambert - Me and Charlie Talking
TTITLE8=Toby and Krystal Keith - Mockingbird
TTITLE9=Alan Jackson - Monday Morning Church
TTITLE10=Joshua Gracin - Nothin' To Lose
TTITLE11=Tracy Byrd - Revenge Of A Middle-Aged Woman
TTITLE12=Jamie O'Neal - Trying To Find Atlantis
TTITLE13=Gretchen Wilson - When I Think About Cheatin'
TTITLE14=Keith Urban - You're My Better Half
EXTD=
EXTT0=
EXTT1=
EXTT2=
EXTT3=
EXTT4=Lee Ann 
EXTT5=
EXTT6=
EXTT7=
EXTT8=
EXTT9=
EXTT10=
EXTT11=
EXTT12=
EXTT13=
EXTT14=
PLAYORDER=
